<svg width="20" height="20" viewBox="0 0 20 20" fill="none" xmlns="http://www.w3.org/2000/svg">
<path d="M10 7.88834C9.39754 7.889 8.8199 8.12863 8.39387 8.55467C7.96784 8.9807 7.7282 9.55834 7.72754 10.1608C7.7282 10.7633 7.96784 11.341 8.39387 11.767C8.8199 12.193 9.39754 12.4327 10 12.4333C10.6025 12.4327 11.1802 12.193 11.6062 11.767C12.0322 11.341 12.2719 10.7633 12.2725 10.1608C12.2719 9.55834 12.0322 8.9807 11.6062 8.55467C11.1802 8.12863 10.6025 7.889 10 7.88834Z" fill="#929CA6"/>
<path d="M10.0001 4.47917C6.21258 4.47917 2.97758 6.835 1.66675 10.1608C2.97758 13.4867 6.21258 15.8425 10.0001 15.8425C13.7917 15.8425 17.0226 13.4867 18.3334 10.1608C17.0226 6.83584 13.7917 4.47917 10.0001 4.47917ZM10.0001 13.9492C8.99556 13.9487 8.03233 13.5494 7.32211 12.8391C6.61189 12.1287 6.2128 11.1654 6.21258 10.1608C6.21302 9.15647 6.6122 8.19336 7.3224 7.48316C8.0326 6.77296 8.99571 6.37378 10.0001 6.37334C11.0046 6.37356 11.9679 6.77264 12.6783 7.48287C13.3887 8.19309 13.788 9.15632 13.7884 10.1608C13.7884 11.1656 13.3893 12.1293 12.6789 12.8399C11.9685 13.5505 11.0049 13.949 10.0001 13.9492Z" fill="#929CA6"/>
</svg>
