<svg width="20" height="20" viewBox="0 0 20 20" fill="none" xmlns="http://www.w3.org/2000/svg">
<path fill-rule="evenodd" clip-rule="evenodd" d="M4.15091 6.02583L2.42508 4.29999L3.39008 3.33333L16.8151 16.7617L15.8484 17.7242L13.6409 15.5125L13.3192 15.1908C12.2635 15.6149 11.1361 15.8322 9.99841 15.8308C6.21091 15.8308 2.97675 13.475 1.66675 10.15C2.25549 8.66028 3.23237 7.35537 4.49591 6.37083L4.15008 6.025L4.15091 6.02583ZM7.78258 9.65416L6.61258 8.48333C6.35196 9.00048 6.21449 9.5709 6.21091 10.15C6.21136 11.1543 6.61056 12.1173 7.32079 12.8274C8.03101 13.5374 8.99412 13.9364 9.99841 13.9367C10.5967 13.9367 11.1567 13.7858 11.6609 13.5358L10.4901 12.365C10.3317 12.3992 10.1684 12.4225 9.99841 12.4225C9.3957 12.4223 8.81772 12.1828 8.39146 11.7567C7.9652 11.3306 7.72552 10.7527 7.72508 10.15C7.72508 9.98 7.74841 9.81666 7.78258 9.65416ZM9.99841 6.3625C11.0027 6.36294 11.9657 6.76214 12.6758 7.47237C13.3859 8.18259 13.7849 9.1457 13.7851 10.15C13.7851 10.6383 13.6867 11.1042 13.5159 11.5325L15.7317 13.7475C16.8859 12.7845 17.7804 11.5477 18.3334 10.15C17.0192 6.825 13.7892 4.46916 9.99841 4.46916C8.93758 4.46916 7.92341 4.65916 6.98008 4.99999L8.61591 6.63166C9.05604 6.45699 9.5249 6.36516 9.99841 6.3625ZM9.87341 7.88916L12.2592 10.275L12.2701 10.15C12.2696 9.54757 12.0302 8.96993 11.6043 8.54388C11.1784 8.11782 10.6008 7.87816 9.99841 7.8775L9.87341 7.88916Z" fill="#929CA6"/>
</svg>
