<svg width="18" height="18" viewBox="0 0 18 18" fill="none" xmlns="http://www.w3.org/2000/svg">
<g clip-path="url(#clip0_333_1629)">
<path d="M7.40997 7.40991C7.18891 7.6159 7.01161 7.8643 6.88863 8.1403C6.76565 8.4163 6.69953 8.71424 6.6942 9.01634C6.68887 9.31845 6.74444 9.61854 6.8576 9.8987C6.97077 10.1789 7.1392 10.4334 7.35286 10.647C7.56651 10.8607 7.82102 11.0291 8.10118 11.1423C8.38134 11.2554 8.68143 11.311 8.98354 11.3057C9.28565 11.3004 9.58359 11.2342 9.85959 11.1113C10.1356 10.9883 10.384 10.811 10.59 10.5899" stroke="#B3B3B3" stroke-width="2" stroke-linecap="round" stroke-linejoin="round"/>
<path d="M8.04749 3.81C8.36347 3.77063 8.68156 3.75059 8.99999 3.75C14.25 3.75 16.5 9 16.5 9C16.1647 9.71784 15.7441 10.3927 15.2475 11.01" stroke="#B3B3B3" stroke-width="2" stroke-linecap="round" stroke-linejoin="round"/>
<path d="M4.9575 4.95752C3.46594 5.97349 2.2724 7.36896 1.5 9.00002C1.5 9.00002 3.75 14.25 9 14.25C10.4369 14.2539 11.8431 13.8339 13.0425 13.0425" stroke="#B3B3B3" stroke-width="2" stroke-linecap="round" stroke-linejoin="round"/>
<path d="M1.5 1.5L16.5 16.5" stroke="#B3B3B3" stroke-width="2" stroke-linecap="round" stroke-linejoin="round"/>
</g>
<defs>
<clipPath id="clip0_333_1629">
<rect width="18" height="18" fill="white"/>
</clipPath>
</defs>
</svg>
