<svg width="20" height="20" viewBox="0 0 20 20" fill="none" xmlns="http://www.w3.org/2000/svg">
<g clip-path="url(#clip0_403_1274)">
<path d="M3.82798 17.9039C3.95562 18.7735 4.60747 19.5469 5.4918 19.8719C5.72884 19.9588 5.87927 19.9726 6.77727 19.9909C8.13112 20.0137 8.29066 19.9588 8.43197 19.3776C8.56872 18.8192 8.86046 18.4348 9.32998 18.206C9.59892 18.0732 9.67642 18.0549 10.0001 18.0549C10.4833 18.0595 10.8434 18.2151 11.1625 18.5675C11.3721 18.7964 11.5727 19.2037 11.5727 19.4005C11.5727 19.5103 11.7459 19.762 11.9055 19.881C12.024 19.968 12.106 19.9771 12.9539 19.9909C14.0297 20.0092 14.3351 19.968 14.8092 19.7391C15.2468 19.5286 15.73 19.0526 15.9397 18.6362C16.2405 18.0229 16.2268 18.5126 16.2132 9.86272L16.1995 2.03663L16.0992 1.77119C15.926 1.3181 15.7664 1.06638 15.4519 0.764319C14.8456 0.17393 14.4217 0.045784 13.0633 0.045784C11.7824 0.045784 11.7414 0.0686673 11.5043 0.883313C11.2491 1.77576 10.2006 2.23343 9.32542 1.83526C8.91061 1.64762 8.5277 1.15334 8.45021 0.7094C8.40462 0.457683 8.24052 0.210544 8.04907 0.123587C7.83026 0.018324 6.13454 0.0137474 5.69693 0.114434C5.30947 0.205967 4.91289 0.425647 4.5938 0.723129C4.27471 1.02061 4.0787 1.31352 3.92371 1.7483L3.80063 2.0824L3.79608 9.86272C3.79152 14.1419 3.80519 17.762 3.82798 17.9039ZM4.55277 2.238C4.66217 1.66592 5.02229 1.19453 5.5465 0.947386L5.85192 0.800933L6.79095 0.787203L7.72998 0.773473L7.75733 0.951962C7.83482 1.42336 8.3408 2.11901 8.80576 2.39361C9.55334 2.83755 10.5334 2.81924 11.2399 2.357C11.7231 2.03663 12.1653 1.41878 12.2382 0.951962L12.2701 0.778049H13.1226C13.8291 0.778049 14.0297 0.791779 14.2531 0.860429C14.7545 1.02061 15.1009 1.3364 15.3471 1.86272L15.4701 2.12816L15.4838 9.90391C15.4975 18.325 15.5066 17.8764 15.265 18.357C15.1237 18.6316 14.7864 18.9428 14.4536 19.0984L14.1482 19.2449H13.2183H12.2884L12.2291 18.9977C12.0149 18.1694 11.2399 17.4829 10.3465 17.341C9.38468 17.1854 8.39551 17.6934 7.9579 18.5721C7.87129 18.7506 7.78468 18.9794 7.76645 19.0847L7.73454 19.2769L6.79095 19.2586L5.85192 19.2449L5.55562 19.0984C5.04052 18.8467 4.65761 18.3662 4.55733 17.849C4.49807 17.5515 4.49351 2.54464 4.55277 2.238Z" fill="#1A1A1A"/>
<path d="M5.2593 5.01147C5.4781 5.23573 5.8291 5.0847 5.8291 4.76434C5.8291 4.40736 5.4234 4.28379 5.2046 4.57212C5.11343 4.69111 5.13622 4.89248 5.2593 5.01147Z" fill="#1A1A1A"/>
<path d="M7.44737 5.01152C7.58413 5.1534 7.74823 5.15797 7.90777 5.02067C8.20407 4.76438 7.92145 4.28841 7.55677 4.43944C7.3243 4.53555 7.26504 4.83303 7.44737 5.01152Z" fill="#1A1A1A"/>
<path d="M9.6354 5.01152C9.77215 5.1534 9.93625 5.15797 10.0958 5.02067C10.1824 4.94287 10.2189 4.86964 10.2189 4.76438C10.2189 4.44401 9.83597 4.30214 9.62628 4.54928C9.48953 4.70946 9.49409 4.87422 9.6354 5.01152Z" fill="#1A1A1A"/>
<path d="M11.7687 4.94287C11.9465 5.29985 12.5437 5.03898 12.3978 4.6637C12.2975 4.39367 11.9967 4.33875 11.8143 4.54928C11.6958 4.69116 11.6867 4.77811 11.7687 4.94287Z" fill="#1A1A1A"/>
<path d="M13.9522 4.91988C14.0661 5.11668 14.212 5.16702 14.4126 5.07549C14.522 5.02515 14.6268 4.86039 14.6268 4.73682C14.6268 4.6041 14.4171 4.42561 14.2622 4.42561C14.1528 4.42561 14.0798 4.45764 14.0023 4.54918C13.8884 4.68648 13.8747 4.78258 13.9522 4.91988Z" fill="#1A1A1A"/>
</g>
<defs>
<clipPath id="clip0_403_1274">
<rect width="20" height="12.4444" fill="white" transform="matrix(0 -1 1 0 3.77783 20)"/>
</clipPath>
</defs>
</svg>
