<svg width="20" height="20" viewBox="0 0 20 20" fill="none" xmlns="http://www.w3.org/2000/svg">
<path d="M6.8113 14.5021L6.8113 9.097H8.06712L8.06712 14.5021L6.8113 14.5021Z" fill="white"/>
<path d="M9.37244 14.5035L9.37244 9.09842L10.6283 9.09842L10.6283 14.5035L9.37244 14.5035Z" fill="white"/>
<path d="M13.188 14.5007L11.935 14.5007L11.935 9.09559H13.188L13.188 14.5007Z" fill="white"/>
<path d="M11.9322 1.37964C11.8233 1.90431 11.5022 2.35262 11.0653 2.63405C10.7598 2.83204 10.3935 2.94659 10.0018 2.94517C9.61144 2.94517 9.24657 2.82921 8.93828 2.63405C8.50128 2.35262 8.18167 1.90573 8.07136 1.37964H5.31365C4.5726 1.37964 3.97297 1.97927 3.97156 2.72173L3.97439 17.2796C3.97439 18.0207 4.57543 18.6217 5.31648 18.6217H8.07985C8.19581 18.0928 8.52815 17.6417 8.97787 17.3673C9.27769 17.1835 9.627 17.0774 10.006 17.0774C10.3822 17.0774 10.7343 17.1835 11.0341 17.3673C11.4839 17.6417 11.8134 18.0928 11.9322 18.6217L14.6871 18.6217C15.4281 18.6217 16.0291 18.0207 16.0291 17.2796L16.0291 2.72173C16.0291 1.98068 15.4281 1.37964 14.6871 1.37964L11.9322 1.37964ZM14.9105 6.15968L13.8923 6.15968V7.45227H14.9105L14.9105 17.5809L12.8373 17.5809C12.2532 16.6291 11.2024 15.9913 10.0074 15.9927C8.811 15.9927 7.76165 16.6291 7.17758 17.5809H5.09303L5.09303 7.44944L6.05187 7.44944L6.05187 6.15685H5.09303L5.0902 2.4205L7.15778 2.4205C7.73902 3.38641 8.79827 4.0327 10.0032 4.0327C11.2081 4.0327 12.2659 3.38499 12.8486 2.4205H14.9077L14.9105 6.15968Z" fill="white"/>
<path d="M7.52406 6.26857H9.39931V7.5244L7.52406 7.5244L7.52406 6.26857Z" fill="white"/>
<path d="M12.4441 7.52298L10.5689 7.52298L10.5689 6.26716L12.4441 6.26716L12.4441 7.52298Z" fill="white"/>
</svg>
