<svg width="20" height="20" fill="none" xmlns="http://www.w3.org/2000/svg"><path d="M16.194 17.904c-.128.872-.782 1.647-1.668 1.973-.238.087-.389.1-1.289.119-1.357.023-1.517-.032-1.658-.615-.137-.56-.43-.945-.9-1.174-.27-.133-.348-.152-.672-.152-.484.005-.845.161-1.165.514-.21.23-.411.638-.411.835 0 .11-.174.363-.334.482-.119.087-.2.096-1.05.11-1.079.018-1.385-.023-1.86-.252-.439-.212-.923-.689-1.133-1.106-.302-.615-.288-.124-.275-8.794L3.793 2l.1-.266c.174-.455.334-.707.65-1.01.607-.591 1.032-.72 2.394-.72 1.284 0 1.325.023 1.562.84.256.894 1.307 1.353 2.184.954.416-.188.8-.684.877-1.129.046-.252.21-.5.403-.587.219-.105 1.919-.11 2.357-.01.389.093.786.313 1.106.611.32.298.516.592.672 1.028l.123.334.005 7.799c.004 4.29-.01 7.918-.032 8.06Zm-.727-15.703a1.781 1.781 0 0 0-.996-1.293L14.165.76l-.941-.014-.942-.014-.027.18c-.078.472-.585 1.17-1.05 1.444-.75.445-1.733.427-2.44-.036C8.28 2 7.836 1.38 7.763.912L7.732.738h-.855c-.708 0-.909.014-1.133.083-.502.16-.85.477-1.096 1.004l-.124.266-.014 7.794c-.013 8.441-.022 7.992.22 8.473.141.275.48.587.813.743l.306.147h1.864l.06-.248c.215-.83.991-1.518 1.887-1.66a2.298 2.298 0 0 1 2.394 1.234c.087.179.174.408.192.514l.032.192.946-.018.94-.014.298-.147c.516-.252.9-.734 1-1.252.06-.298.065-15.34.005-15.648Z" fill="#FFF"/><path d="M14.759 4.981c-.22.225-.571.074-.571-.247 0-.358.406-.482.626-.193.091.12.068.321-.055.44ZM12.566 4.981c-.137.143-.302.147-.462.01-.297-.257-.013-.734.352-.583a.347.347 0 0 1 .11.573ZM10.373 4.981c-.137.143-.302.147-.462.01-.087-.078-.123-.152-.123-.257 0-.321.383-.464.594-.216.137.16.132.326-.01.463ZM8.234 4.913c-.178.357-.777.096-.63-.28.1-.27.402-.326.585-.115.118.142.127.23.045.395ZM6.046 4.89c-.115.197-.26.247-.462.156a.432.432 0 0 1-.214-.34c0-.133.21-.312.365-.312.11 0 .183.032.26.124.115.138.128.234.05.372Z" fill="#FFF"/></svg>