<svg width="48" height="32" viewBox="0 0 48 32" fill="none" xmlns="http://www.w3.org/2000/svg">
<path d="M19.4667 21.5133H22.06L23.72 11.1533H20.9467L19.4667 21.5133Z" fill="#1565C0"/>
<path d="M17.2466 10.9668L14.8466 18.3668L14.3866 16.2868C13.6936 14.4843 12.4682 12.9356 10.8733 11.8468L13.18 21.3335H15.9533L19.84 10.9735L17.2466 10.9668Z" fill="#1565C0"/>
<path d="M38 10.9668H35.1933L30.9333 21.3335H33.5267L34.08 19.8535H37.4133L37.78 21.3335H40L38 10.9668ZM34.6667 18.0001L36.1467 14.1135L36.8533 18.0001H34.6667Z" fill="#1565C0"/>
<path d="M27.24 13.9265C27.24 13.3731 27.6067 12.8198 28.9 12.8198C29.576 12.8836 30.2193 13.1405 30.7534 13.5598L31.3333 11.3331C30.5682 11.014 29.7544 10.8269 28.9267 10.7798C26.1533 10.7798 24.86 12.2598 24.86 13.9198C24.86 17.2531 28.56 16.6998 28.56 18.3598C28.56 18.7331 28.3733 19.2865 26.8933 19.2865C26.0018 19.2857 25.1205 19.0972 24.3067 18.7331L23.9333 20.9531C24.7978 21.3641 25.7507 21.5542 26.7067 21.5065C28.3733 21.6931 30.96 20.2131 30.96 17.9931C30.9333 15.4065 27.24 15.2265 27.24 13.9265Z" fill="#1565C0"/>
<path d="M14.4733 16.7066L13.5467 12.0799C13.4176 11.7976 13.2087 11.5594 12.9456 11.3947C12.6825 11.23 12.377 11.146 12.0667 11.1533H8C8 11.1533 13.3667 12.8199 14.4733 16.7066Z" fill="#FF9800"/>
</svg>
