<svg width="48" height="32" viewBox="0 0 48 32" fill="none" xmlns="http://www.w3.org/2000/svg">
<path d="M18 26C23.5228 26 28 21.5228 28 16C28 10.4772 23.5228 6 18 6C12.4772 6 8 10.4772 8 16C8 21.5228 12.4772 26 18 26Z" fill="#F44336"/>
<path d="M30 26C35.5228 26 40 21.5228 40 16C40 10.4772 35.5228 6 30 6C24.4772 6 20 10.4772 20 16C20 21.5228 24.4772 26 30 26Z" fill="#FF9800"/>
<path d="M25.3333 22.8201C25.033 23.1426 24.7124 23.4454 24.3733 23.7268H18.9066C18.5675 23.4454 18.2469 23.1426 17.9466 22.8201H25.3333ZM16.5933 21.0001C16.7754 21.3138 16.9757 21.6165 17.1933 21.9068H26.06C26.2775 21.6151 26.48 21.3125 26.6666 21.0001H16.5933ZM15.26 16.0001C15.26 16.1534 15.26 16.3068 15.26 16.4534H28C28 16.3068 28 16.1534 28 16.0001C28 15.8468 28 15.6934 28 15.5468H15.2666C15.26 15.6934 15.2533 15.8468 15.2533 16.0001H15.26ZM15.78 19.1801C15.8866 19.4934 16 19.7934 16.1333 20.0934H27.1333C27.2666 19.7934 27.38 19.4934 27.4866 19.1801H15.78ZM17.9533 9.1801H25.3333C25.033 8.85763 24.7124 8.55479 24.3733 8.27344H18.9066C18.5675 8.55479 18.2469 8.85763 17.9466 9.1801H17.9533ZM16.1333 11.9068C16 12.2068 15.8866 12.5068 15.78 12.8201H27.48C27.3733 12.5068 27.26 12.2068 27.1266 11.9068H16.1333ZM17.2 10.0934C16.9824 10.3837 16.7821 10.6864 16.6 11.0001H26.6666C26.4822 10.6879 26.2819 10.3853 26.0666 10.0934H17.2ZM15.52 13.7268C15.4533 14.0268 15.4 14.3268 15.3533 14.6334H27.9066C27.86 14.3268 27.8066 14.0268 27.74 13.7268H15.52ZM15.3333 17.3668C15.38 17.6734 15.4333 17.9734 15.5 18.2734H27.74C27.8066 17.9734 27.86 17.6734 27.9066 17.3668H15.3333Z" fill="#F44336"/>
<path d="M27.7 16.8C27.7 15.72 28.2534 14.96 29.0334 14.96C29.3636 14.9717 29.6862 15.0632 29.9734 15.2267L30.14 14.16L29.8867 14.0667L29.46 13.9534C29.3047 13.919 29.1458 13.9034 28.9867 13.9067C27.6 13.9067 26.6267 15.1334 26.6267 16.8867C26.6267 18.22 27.3334 19.0067 28.46 19.0067C28.7744 19.0032 29.0866 18.9538 29.3867 18.86L29.5734 17.74C29.2962 17.8977 28.9853 17.9869 28.6667 18C28.0734 18 27.7 17.5467 27.7 16.8Z" fill="#3C4646"/>
<path d="M26.78 14.8867H26.6666C26.32 14.8867 26.1266 15.0667 25.8066 15.5534L25.9 14.9467H24.9533L24.2866 18.9467H25.34C25.7133 16.5067 25.8133 16.0867 26.3133 16.0867H26.3933C26.4609 15.6804 26.5961 15.2883 26.7933 14.9267L26.78 14.8867Z" fill="#263238"/>
<path d="M20.5334 15.8935H21.0667L21.2134 14.9202H20.6667L20.7867 14.3335H19.7534L19.3334 17.0535L19.2867 17.3668L19.22 17.7602C19.2106 17.88 19.2106 18.0003 19.22 18.1202C19.2045 18.2305 19.2132 18.343 19.2455 18.4497C19.2779 18.5563 19.3331 18.6547 19.4074 18.7378C19.4816 18.821 19.5731 18.8869 19.6755 18.9311C19.7778 18.9752 19.8886 18.9965 20 18.9935C20.2561 18.99 20.5102 18.9473 20.7534 18.8668L20.88 18.0002C20.7875 18.0299 20.6905 18.0434 20.5934 18.0402C20.3467 18.0402 20.24 17.9535 20.24 17.7468C20.2346 17.6914 20.2346 17.6356 20.24 17.5802L20.5334 15.8935Z" fill="#263238"/>
<path d="M18.3067 15.7802C18.5589 15.7826 18.8106 15.8026 19.06 15.8402L19.2067 14.9135C18.9019 14.8684 18.5947 14.8417 18.2867 14.8335C17.1134 14.8335 16.7134 15.4468 16.7134 16.1668C16.7016 16.4218 16.7734 16.6737 16.9178 16.8843C17.0621 17.0948 17.2712 17.2525 17.5134 17.3335C17.9334 17.5335 18 17.5868 18 17.7735C18 17.9602 17.8134 18.1335 17.4 18.1335C17.0802 18.1307 16.7628 18.0767 16.46 17.9735L16.3134 18.8935H16.36L16.5534 18.9402L16.8267 18.9735C17.08 18.9735 17.2734 18.9735 17.4067 18.9735C18.5134 18.9735 19.02 18.5535 19.02 17.6402C19.0361 17.3991 18.9723 17.1594 18.8385 16.9582C18.7048 16.757 18.5085 16.6054 18.28 16.5268C17.8467 16.3268 17.7934 16.2802 17.7934 16.1002C17.7934 15.9202 18 15.7802 18.3067 15.7802Z" fill="#263238"/>
<path d="M37.9066 14L37.68 15.4C37.5692 15.2329 37.4186 15.096 37.2416 15.0017C37.0647 14.9075 36.8671 14.8587 36.6666 14.86C35.74 14.86 34.96 15.98 34.96 17.3133C34.96 18.3067 35.4666 18.9667 36.2266 18.9667C36.4119 18.9697 36.5956 18.9311 36.764 18.8538C36.9324 18.7765 37.0814 18.6625 37.2 18.52L37.1466 18.9133H38.14L38.94 14H37.9066ZM36.6 18C36.24 18 36.06 17.74 36.06 17.2133C36.06 16.4333 36.4 15.88 36.8733 15.88C37.2333 15.88 37.4266 16.1533 37.4266 16.66C37.4266 17.42 37.0866 18 36.6 18Z" fill="#263238"/>
<path d="M24.2001 17.2602C24.283 16.9377 24.3277 16.6065 24.3334 16.2736C24.3502 16.0816 24.3253 15.8884 24.2602 15.707C24.1952 15.5257 24.0916 15.3606 23.9567 15.2231C23.8217 15.0856 23.6586 14.979 23.4785 14.9106C23.2984 14.8422 23.1056 14.8136 22.9134 14.8269C21.8601 14.8269 21.0867 15.8336 21.0867 17.2002C21.0539 17.442 21.0772 17.6881 21.1549 17.9194C21.2327 18.1506 21.3627 18.3609 21.5349 18.5337C21.7071 18.7066 21.9169 18.8374 22.1478 18.916C22.3788 18.9946 22.6248 19.0188 22.8667 18.9869C23.2308 18.9925 23.5934 18.9385 23.9401 18.8269L24.1134 17.8336C23.775 17.9992 23.4035 18.0859 23.0267 18.0869C22.4201 18.0869 22.1067 17.8469 22.1067 17.3869C22.1044 17.3447 22.1044 17.3024 22.1067 17.2602H24.2001ZM22.8667 15.7336C22.935 15.7292 23.0033 15.7399 23.067 15.7648C23.1306 15.7898 23.188 15.8285 23.2351 15.8781C23.2822 15.9277 23.3178 15.987 23.3393 16.0519C23.3609 16.1168 23.368 16.1856 23.3601 16.2536C23.3601 16.3002 23.3601 16.3736 23.3601 16.4536H22.2001C22.2934 16.0002 22.5334 15.7336 22.8667 15.7336Z" fill="#263238"/>
<path d="M11.92 14.0068L10.9067 17.0468L10.86 14.0068H9.35333L8.53333 18.9135H9.51999L10.1467 15.1668L10.24 18.9135H10.9533L12.2933 15.1402L11.6933 18.9135H12.74L13.5467 14.0068H11.92Z" fill="#263238"/>
<path d="M16.48 16C16.48 15.2333 16.0066 14.8267 15.1066 14.8267C14.6804 14.8333 14.2577 14.9053 13.8533 15.04L13.7066 15.9333H13.8L13.9466 15.8867C14.2298 15.8143 14.521 15.7784 14.8133 15.78C15.3066 15.78 15.48 15.8733 15.48 16.14C15.4789 16.2281 15.4654 16.3156 15.44 16.4C15.2979 16.3914 15.1554 16.3914 15.0133 16.4C13.8466 16.4 13.1733 16.9667 13.1733 17.94C13.1642 18.0725 13.1822 18.2055 13.2261 18.3309C13.2701 18.4562 13.339 18.5713 13.4288 18.6692C13.5186 18.7671 13.6273 18.8457 13.7484 18.9003C13.8696 18.9549 14.0005 18.9843 14.1333 18.9867C14.342 18.9974 14.5502 18.959 14.7413 18.8744C14.9324 18.7899 15.1009 18.6616 15.2333 18.5V18.9133H16.1V18.8067V18.6667V18.4667V18.2133L16.32 16.7933C16.3981 16.5345 16.4517 16.2689 16.48 16ZM14.5666 18.1333C14.5144 18.1346 14.4624 18.1247 14.4143 18.1042C14.3662 18.0838 14.323 18.0532 14.2877 18.0147C14.2523 17.9762 14.2256 17.9306 14.2093 17.8809C14.193 17.8312 14.1876 17.7786 14.1933 17.7267C14.1933 17.3267 14.4933 17.12 15.0866 17.12H15.32C15.3333 17.7267 14.9933 18.1333 14.5666 18.1333Z" fill="#263238"/>
<path d="M31.62 14.8335C31.1916 14.8401 30.7667 14.9121 30.36 15.0468L30.22 15.9402H30.3133L30.46 15.8935C30.7431 15.8211 31.0344 15.7853 31.3267 15.7868C31.8133 15.7868 31.9933 15.8802 31.9933 16.1468C31.9922 16.2349 31.9788 16.3225 31.9533 16.4068C31.8112 16.3987 31.6688 16.3987 31.5267 16.4068C30.36 16.4068 29.6867 16.9735 29.6867 17.9468C29.6785 18.0805 29.6977 18.2144 29.7433 18.3403C29.7889 18.4662 29.8597 18.5815 29.9516 18.6789C30.0434 18.7764 30.1542 18.854 30.2772 18.9069C30.4002 18.9599 30.5328 18.9871 30.6667 18.9868C30.8753 18.9976 31.0836 18.9591 31.2747 18.8746C31.4657 18.7901 31.6343 18.6618 31.7667 18.5002V18.9135H32.6333V18.8068V18.6668V18.4668L32.6667 18.2135L32.8867 16.7935C32.9468 16.5329 32.9825 16.2673 32.9933 16.0002C32.9933 15.2402 32.52 14.8335 31.62 14.8335ZM31.08 18.1335C31.0277 18.1348 30.9758 18.1248 30.9277 18.1044C30.8796 18.0839 30.8364 18.0534 30.801 18.0149C30.7657 17.9764 30.7389 17.9308 30.7227 17.8811C30.7064 17.8314 30.7009 17.7788 30.7067 17.7268C30.7067 17.3268 31.0067 17.1202 31.6 17.1202H31.8333C31.8133 17.7268 31.5067 18.1335 31.08 18.1335Z" fill="#263238"/>
<path d="M35.04 16.0599C35.1137 15.6552 35.2486 15.264 35.44 14.8999H35.3334C34.9934 14.8999 34.7934 15.0799 34.4734 15.5666L34.5667 14.9599H33.5867L32.92 18.9599H34C34.38 16.5199 34.4734 16.0999 34.98 16.0999L35.04 16.0599Z" fill="#263238"/>
<path d="M38.9133 17.8535C38.8313 17.8553 38.7533 17.889 38.696 17.9476C38.6387 18.0062 38.6066 18.0849 38.6066 18.1668C38.6001 18.2114 38.6032 18.2568 38.6158 18.3C38.6283 18.3432 38.6501 18.3832 38.6795 18.4172C38.7089 18.4513 38.7453 18.4786 38.7862 18.4973C38.8271 18.5161 38.8716 18.5258 38.9166 18.5258C38.9616 18.5258 39.0061 18.5161 39.047 18.4973C39.0879 18.4786 39.1243 18.4513 39.1537 18.4172C39.1831 18.3832 39.2049 18.3432 39.2175 18.3C39.23 18.2568 39.2332 18.2114 39.2266 18.1668C39.2249 18.0843 39.1913 18.0056 39.1329 17.9472C39.0746 17.8888 38.9958 17.8552 38.9133 17.8535ZM38.9133 18.4068C38.8658 18.4068 38.8194 18.3928 38.7799 18.3664C38.7405 18.34 38.7097 18.3025 38.6915 18.2587C38.6734 18.2148 38.6686 18.1666 38.6779 18.12C38.6871 18.0735 38.71 18.0307 38.7436 17.9971C38.7771 17.9636 38.8199 17.9407 38.8664 17.9315C38.913 17.9222 38.9613 17.927 39.0051 17.9451C39.049 17.9633 39.0865 17.994 39.1128 18.0335C39.1392 18.073 39.1533 18.1194 39.1533 18.1668C39.1533 18.2305 39.128 18.2915 39.083 18.3366C39.038 18.3816 38.9769 18.4068 38.9133 18.4068Z" fill="white"/>
<path d="M39.0333 18.1134C39.0336 18.0996 39.0299 18.0861 39.0229 18.0743C39.0158 18.0625 39.0056 18.053 38.9933 18.0467C38.9715 18.0404 38.9484 18.0404 38.9266 18.0467H38.8066V18.32H38.8733V18.2H38.92L38.96 18.3067H39.0333L38.98 18.1867C38.9952 18.1813 39.0085 18.1714 39.018 18.1583C39.0276 18.1452 39.0329 18.1296 39.0333 18.1134ZM38.9466 18.1134H38.8733V18.04H38.9466C38.9608 18.04 38.9744 18.0457 38.9844 18.0557C38.9944 18.0657 39 18.0792 39 18.0934C39 18.1075 38.9944 18.1211 38.9844 18.1311C38.9744 18.1411 38.9608 18.1467 38.9466 18.1467V18.1134Z" fill="white"/>
<path d="M27.7 16.3469C27.7 15.2669 28.2534 14.5069 29.0334 14.5069C29.3639 14.5167 29.6869 14.6083 29.9734 14.7736L30.14 13.7069L29.8867 13.6069L29.46 13.5002C29.3047 13.4659 29.1458 13.4502 28.9867 13.4536C27.6 13.4536 26.6267 14.6802 26.6267 16.4336C26.6267 17.7669 27.3334 18.5469 28.46 18.5469C28.7741 18.5461 29.0864 18.4989 29.3867 18.4069L29.5734 17.2869C29.2996 17.4403 28.9936 17.527 28.68 17.5402C28.0734 17.5402 27.7 17.0869 27.7 16.3469Z" fill="white"/>
<path d="M26.78 14.4331H26.6666C26.32 14.4331 26.1266 14.6064 25.8066 15.0998L25.9 14.4931H24.9533L24.2866 18.4931H25.34C25.7133 16.0531 25.8133 15.6331 26.3133 15.6331H26.3933C26.4609 15.2268 26.5961 14.8347 26.7933 14.4731L26.78 14.4331Z" fill="white"/>
<path d="M20.5334 15.4402H21.0667L21.2134 14.4669H20.6667L20.7867 13.8735H19.7534L19.3334 16.6002L19.2867 16.9135L19.22 17.3069C19.2106 17.4267 19.2106 17.5471 19.22 17.6669C19.2045 17.7773 19.2132 17.8897 19.2455 17.9964C19.2779 18.103 19.3331 18.2014 19.4074 18.2845C19.4816 18.3677 19.5731 18.4336 19.6755 18.4778C19.7778 18.5219 19.8886 18.5432 20 18.5402C20.2561 18.5367 20.5102 18.494 20.7534 18.4135L20.8934 17.5269C20.8008 17.5566 20.7038 17.5701 20.6067 17.5669C20.36 17.5669 20.2534 17.4735 20.2534 17.2669C20.2482 17.2137 20.2482 17.1601 20.2534 17.1069L20.5334 15.4402Z" fill="white"/>
<path d="M18.3067 15.3336C18.559 15.3385 18.8107 15.3607 19.06 15.4002L19.2067 14.4736C18.9023 14.4252 18.5949 14.3984 18.2867 14.3936C17.1134 14.3936 16.7134 15.0069 16.7134 15.7269C16.7131 15.9729 16.7903 16.2128 16.9338 16.4125C17.0774 16.6123 17.2801 16.7619 17.5134 16.8402C17.9334 17.0336 18 17.0936 18 17.2736C18 17.4536 17.8134 17.6402 17.4 17.6402C17.0802 17.6375 16.7628 17.5834 16.46 17.4802L16.3134 18.4002H16.36L16.5534 18.4402L16.8267 18.4802C17.08 18.4802 17.2734 18.5136 17.4067 18.5136C18.5134 18.5136 19.02 18.0869 19.02 17.1802C19.0361 16.9391 18.9723 16.6995 18.8385 16.4982C18.7048 16.297 18.5085 16.1454 18.28 16.0669C17.8467 15.8669 17.7934 15.8202 17.7934 15.6336C17.7934 15.4469 18 15.3336 18.3067 15.3336Z" fill="white"/>
<path d="M37.9066 13.5532L37.68 14.9532C37.5713 14.7836 37.4213 14.6444 37.244 14.5488C37.0668 14.4531 36.868 14.4042 36.6666 14.4066C35.74 14.4066 34.96 15.5266 34.96 16.8532C34.96 17.8532 35.4666 18.5132 36.2266 18.5132C36.4119 18.5162 36.5956 18.4777 36.764 18.4004C36.9324 18.3231 37.0814 18.209 37.2 18.0666L37.1466 18.4599H38.14L38.9333 13.5532H37.9066ZM36.5733 17.5532C36.2133 17.5532 36.0333 17.2866 36.0333 16.7666C36.0333 15.9799 36.3733 15.4332 36.8466 15.4332C37.2066 15.4332 37.4 15.7066 37.4 16.2132C37.4266 16.9666 37.0866 17.5199 36.6 17.5199L36.5733 17.5532Z" fill="white"/>
<path d="M24.2001 16.8065C24.283 16.4839 24.3277 16.1528 24.3334 15.8198C24.3512 15.6274 24.3271 15.4333 24.2625 15.2512C24.1979 15.069 24.0945 14.903 23.9594 14.7648C23.8244 14.6266 23.6609 14.5193 23.4802 14.4506C23.2996 14.3818 23.1062 14.3531 22.9134 14.3665C21.8601 14.3665 21.0867 15.3798 21.0867 16.7465C21.0539 16.9883 21.0772 17.2343 21.1549 17.4656C21.2327 17.6969 21.3627 17.9071 21.5349 18.08C21.7071 18.2528 21.9169 18.3837 22.1478 18.4622C22.3788 18.5408 22.6248 18.5651 22.8667 18.5332C23.2308 18.5388 23.5934 18.4848 23.9401 18.3732L24.1134 17.3732C23.7761 17.5418 23.4038 17.6286 23.0267 17.6265C22.4201 17.6265 22.1067 17.3932 22.1067 16.9265C22.1067 16.8932 22.1067 16.8665 22.1067 16.8065H24.2001ZM22.8667 15.2798C22.9346 15.2744 23.0029 15.2841 23.0666 15.3083C23.1303 15.3325 23.1878 15.3705 23.235 15.4196C23.2822 15.4687 23.3179 15.5277 23.3395 15.5923C23.3612 15.6569 23.3682 15.7255 23.3601 15.7932C23.3601 15.8465 23.3601 15.9198 23.3601 15.9998H22.2001C22.2934 15.5398 22.5334 15.2798 22.8667 15.2798Z" fill="white"/>
<path d="M11.92 13.5532L10.9067 16.5932L10.86 13.5532H9.35333L8.53333 18.4599H9.51999L10.1467 14.7066L10.24 18.4599H10.9533L12.2933 14.6866L11.6933 18.4599H12.74L13.5467 13.5532H11.92Z" fill="white"/>
<path d="M16.48 15.5532C16.48 14.7865 16.0067 14.3799 15.1067 14.3799C14.6805 14.3866 14.2578 14.4585 13.8533 14.5932L13.7067 15.4865H13.8L13.9467 15.4465C14.2295 15.3718 14.5208 15.3337 14.8133 15.3332C15.3067 15.3332 15.48 15.4332 15.48 15.6999C15.4789 15.788 15.4655 15.8755 15.44 15.9599C15.2979 15.9512 15.1554 15.9512 15.0133 15.9599C13.8467 15.9599 13.1733 16.5265 13.1733 17.4999C13.1661 17.631 13.1855 17.7622 13.2304 17.8857C13.2752 18.0091 13.3446 18.1222 13.4343 18.2181C13.524 18.314 13.6321 18.3908 13.7523 18.4438C13.8724 18.4968 14.002 18.5249 14.1333 18.5266C14.3415 18.5381 14.5494 18.5007 14.7404 18.4173C14.9314 18.334 15.1003 18.207 15.2333 18.0465V18.4599H16.1V18.3532V18.2132V18.0132V17.7532L16.32 16.3399C16.3975 16.0831 16.451 15.8198 16.48 15.5532ZM14.5667 17.6799C14.5144 17.6811 14.4625 17.6712 14.4144 17.6508C14.3662 17.6303 14.3231 17.5998 14.2877 17.5613C14.2523 17.5228 14.2256 17.4771 14.2094 17.4275C14.1931 17.3778 14.1876 17.3252 14.1933 17.2732C14.1933 16.8732 14.4933 16.6665 15.0867 16.6665C15.1688 16.6601 15.2512 16.6601 15.3333 16.6665C15.3333 17.2732 14.9933 17.6799 14.5667 17.6799Z" fill="white"/>
<path d="M31.62 14.3799C31.1916 14.3865 30.7667 14.4585 30.36 14.5932L30.22 15.4865H30.3134L30.46 15.4465C30.745 15.3712 31.0386 15.3331 31.3334 15.3332C31.82 15.3332 32 15.4332 32 15.6999C31.9989 15.788 31.9855 15.8755 31.96 15.9599C31.8179 15.9517 31.6755 15.9517 31.5334 15.9599C30.3667 15.9599 29.6934 16.5265 29.6934 17.4999C29.6861 17.6321 29.7059 17.7644 29.7516 17.8888C29.7972 18.0131 29.8678 18.1268 29.9589 18.2229C30.05 18.319 30.1598 18.3955 30.2815 18.4477C30.4032 18.4999 30.5343 18.5267 30.6667 18.5266C30.8748 18.5381 31.0827 18.5007 31.2738 18.4173C31.4648 18.334 31.6336 18.207 31.7667 18.0465V18.4599H32.6334V18.3532V18.2132V18.0132L32.6667 17.7532L32.8867 16.3399C32.9394 16.0808 32.9684 15.8175 32.9734 15.5532C32.9934 14.7865 32.52 14.3799 31.62 14.3799ZM31.08 17.6799C31.0278 17.6811 30.9758 17.6712 30.9277 17.6508C30.8796 17.6303 30.8364 17.5998 30.8011 17.5613C30.7657 17.5228 30.739 17.4771 30.7227 17.4275C30.7064 17.3778 30.701 17.3252 30.7067 17.2732C30.7067 16.8732 31.0067 16.6665 31.6 16.6665C31.6777 16.6608 31.7557 16.6608 31.8334 16.6665C31.8134 17.2732 31.5067 17.6799 31.08 17.6799Z" fill="white"/>
<path d="M35.04 15.6001C35.1148 15.1978 35.2496 14.809 35.44 14.4468H35.3334C34.9934 14.4468 34.7934 14.6201 34.4734 15.1134L34.5667 14.5068H33.5867L32.92 18.5068H34C34.38 16.0668 34.4734 15.6468 34.98 15.6468L35.04 15.6001Z" fill="white"/>
</svg>
