<svg width="48" height="48" viewBox="0 0 48 48" fill="none" xmlns="http://www.w3.org/2000/svg">
<rect width="48" height="48" rx="24" fill="#725FF0"/>
<path d="M32.8126 14.337C32.2174 13.7886 29.8083 12.0404 24.4371 12.017C24.4371 12.017 18.1051 11.6373 15.0211 14.4682C13.3057 16.1836 12.7011 18.7005 12.6355 21.8173C12.5698 24.9341 12.4902 30.774 18.1191 32.3582H18.1238L18.1191 34.7766C18.1191 34.7766 18.0816 35.7562 18.7284 35.953C19.5065 36.1968 19.9658 35.4515 20.711 34.6501C21.1188 34.2095 21.6812 33.5627 22.1077 33.0706C25.9603 33.394 28.9178 32.6534 29.2552 32.5456C30.0333 32.2926 34.4343 31.7301 35.1467 25.8902C35.8872 19.8629 34.7905 16.0571 32.8126 14.337V14.337ZM33.4641 25.4497C32.8595 30.3241 29.2927 30.6334 28.6366 30.8443C28.3554 30.9334 25.7541 31.5801 22.4873 31.3692C22.4873 31.3692 20.0502 34.3079 19.2909 35.0719C19.0425 35.3203 18.7706 35.2969 18.7753 34.8047C18.7753 34.4813 18.7941 30.7881 18.7941 30.7881C18.7894 30.7881 18.7894 30.7881 18.7941 30.7881C14.0228 29.4663 14.304 24.4935 14.3556 21.8923C14.4071 19.2911 14.8992 17.1585 16.3522 15.7243C18.9628 13.3574 24.3387 13.709 24.3387 13.709C28.8803 13.7277 31.055 15.0963 31.5612 15.5556C33.2344 16.9898 34.0875 20.4206 33.4641 25.4497V25.4497ZM26.9493 21.6626C26.968 22.0657 26.3634 22.0938 26.3447 21.6908C26.2931 20.6596 25.8104 20.1581 24.8167 20.1019C24.4137 20.0785 24.4512 19.4739 24.8495 19.4973C26.1572 19.5676 26.8837 20.3175 26.9493 21.6626ZM27.9007 22.1923C27.9476 20.205 26.7056 18.649 24.348 18.4755C23.9497 18.4474 23.9918 17.8428 24.3902 17.8709C27.1086 18.0678 28.5569 19.9379 28.5053 22.2063C28.5007 22.6094 27.8914 22.5907 27.9007 22.1923V22.1923ZM30.1036 22.8203C30.1083 23.2234 29.499 23.2281 29.499 22.825C29.4708 19.0052 26.9258 16.9242 23.8372 16.9007C23.4388 16.8961 23.4388 16.2961 23.8372 16.2961C27.2914 16.3196 30.0708 18.7052 30.1036 22.8203V22.8203ZM29.574 27.4182V27.4275C29.0678 28.3181 28.121 29.3023 27.1461 28.9883L27.1368 28.9742C26.1478 28.6977 23.8184 27.4978 22.3467 26.3261C21.5875 25.7262 20.8938 25.0185 20.3595 24.3389C19.8767 23.7343 19.3893 23.0172 18.9159 22.1548C17.9176 20.3503 17.6973 19.5442 17.6973 19.5442C17.3833 18.5693 18.3629 17.6225 19.2581 17.1163H19.2674C19.6986 16.8914 20.1111 16.9664 20.3876 17.2991C20.3876 17.2991 20.9688 17.9928 21.2172 18.3349C21.4515 18.6536 21.7656 19.1645 21.9296 19.4504C22.2155 19.9613 22.0374 20.4815 21.7562 20.6971L21.1938 21.1471C20.9079 21.3767 20.9454 21.8033 20.9454 21.8033C20.9454 21.8033 21.7796 24.9575 24.8964 25.7543C24.8964 25.7543 25.3229 25.7918 25.5526 25.5059L26.0025 24.9435C26.2181 24.6623 26.7384 24.4842 27.2492 24.7701C27.9382 25.1591 28.8147 25.7637 29.3959 26.3121C29.7239 26.5792 29.7989 26.987 29.574 27.4182Z" fill="white"/>
</svg>
