<svg width="48" height="48" viewBox="0 0 48 48" fill="none" xmlns="http://www.w3.org/2000/svg">
<rect width="48" height="48" rx="24" fill="#0277FF"/>
<path d="M32.5898 19.2459C32.7134 18.8162 32.5898 18.5 31.995 18.5H30.0268C29.5256 18.5 29.295 18.7716 29.1714 19.0741C29.1714 19.0741 28.1689 21.5869 26.7521 23.2162C26.2943 23.6872 26.0838 23.8384 25.8332 23.8384C25.7096 23.8384 25.5191 23.6872 25.5191 23.2575V19.2459C25.5191 18.7303 25.3788 18.5 24.9644 18.5H21.8702C21.5561 18.5 21.3689 18.7406 21.3689 18.9641C21.3689 19.4522 22.0773 19.5656 22.1509 20.9406V23.9244C22.1509 24.5775 22.0372 24.6978 21.7866 24.6978C21.1183 24.6978 19.4943 22.1747 18.532 19.2872C18.3382 18.7269 18.1477 18.5 17.6431 18.5H15.675C15.1136 18.5 15 18.7716 15 19.0741C15 19.6103 15.6683 22.2744 18.111 25.7944C19.7383 28.1972 22.0306 29.5 24.1157 29.5C25.3687 29.5 25.5225 29.2113 25.5225 28.7128C25.5225 26.4166 25.4088 26.2 26.037 26.2C26.3278 26.2 26.829 26.3513 27.9985 27.5097C29.3351 28.8847 29.5557 29.5 30.3042 29.5H32.2723C32.8337 29.5 33.1177 29.2113 32.954 28.6406C32.5797 27.4409 30.0502 24.9728 29.9366 24.8078C29.6459 24.4228 29.7294 24.2509 29.9366 23.9072C29.9399 23.9038 32.3425 20.425 32.5898 19.2459V19.2459Z" fill="white"/>
</svg>
