<svg xmlns="http://www.w3.org/2000/svg" version="1.1" xmlns:xlink="http://www.w3.org/1999/xlink" xmlns:svgjs="http://svgjs.com/svgjs" width="24" height="24"><svg version="1.1" viewBox="0 0 24 24" xmlns="http://www.w3.org/2000/svg" xmlns:xlink="http://www.w3.org/1999/xlink"><path d="M6.855 14.365l-1.817 6.36c-.115.402.034.835.372 1.082 .34.247.797.257 1.145.024l5.445-3.629 5.445 3.63c.168.112.362.168.555.168 .207 0 .414-.064.59-.192 .338-.247.487-.68.372-1.082l-1.817-6.36 4.48-3.584c.308-.247.442-.651.343-1.033 -.099-.382-.414-.67-.804-.734l-5.497-.916 -2.772-5.545c-.34-.678-1.449-.678-1.789 0l-2.773 5.544 -5.497.916c-.39.064-.704.353-.804.734 -.1.381.035.786.343 1.033l4.48 3.584Z" fill="#0076FF"></path></svg><style>@media (prefers-color-scheme: light) { :root { filter: none; } }
</style></svg>